<svg height="512pt" viewBox="0 -117 512 512" width="512pt" xmlns="http://www.w3.org/2000/svg"><path d="m256 270.136719h168.984375c43.875 0 79.441406-35.566407 79.441406-79.441407v-61.9375c0-112.769531-185.816406-121.183593-248.425781-121.183593s-248.425781 8.414062-248.425781 121.183593v61.9375c0 43.875 35.566406 79.441407 79.441406 79.441407zm0 0" fill="#fdc26b"/><path d="m481.199219 246.824219c14.351562-14.371094 23.226562-34.214844 23.226562-56.128907v-61.9375c0-47.53125-33.011719-76.523437-75.898437-94.160156-.464844-.191406-.925782-.378906-1.386719-.5625 31.753906 18.003906 54.058594 44.546875 54.058594 83.613282zm0 0" fill="#fcb54c"/><path d="m403.1875 164.101562c-41.78125 0-98.757812-5.046874-147.1875-5.046874s-105.40625 7.066406-147.1875 7.066406c-55.585938 0-85.449219-6.542969-101.238281-12.683594v37.257812c0 43.875 35.566406 79.441407 79.441406 79.441407h337.96875c43.875 0 79.441406-35.566407 79.441406-79.441407v-37.257812c-15.789062 6.140625-45.652343 10.664062-101.238281 10.664062zm0 0" fill="#fedca9"/><path d="m481.199219 159.328125v31.367187c0 43.875-35.566407 79.441407-79.441407 79.441407h23.226563c43.875 0 79.441406-35.566407 79.441406-79.441407v-37.257812c-5.710937 2.222656-13.277343 4.230469-23.226562 5.890625zm0 0" fill="#fdc26b"/><g fill="#fcb54c"><path d="m276.195312 7.867188c-.007812 12.664062-.414062 100.691406-20.195312 100.691406s-20.1875-88.019532-20.195312-100.691406c7.613281-.222657 14.429687-.292969 20.195312-.292969s12.582031.070312 20.195312.292969zm0 0"/><path d="m385.140625 20.925781c-.542969 32.214844-3.542969 87.632813-20.074219 87.632813-18.007812 0-19.964844-69.464844-20.179687-95.117188 13.261719 1.867188 26.851562 4.300782 40.253906 7.484375zm0 0"/><path d="m167.101562 13.441406c-.203124 25.648438-2.160156 95.117188-20.167968 95.117188-16.53125 0-19.53125-55.417969-20.074219-87.632813 13.390625-3.171875 26.992187-5.617187 40.242187-7.484375zm0 0"/></g><path d="m479.496094 56.632812c-17.546875-15.878906-42.324219-28.667968-73.636719-38.011718-51.566406-15.390625-109.957031-18.621094-149.859375-18.621094-40.660156 0-117.59375 3.617188-176.027344 27.847656-3.867187 1.601563-5.699218 6.03125-4.097656 9.894532 1.605469 3.867187 6.03125 5.699218 9.898438 4.097656 10.691406-4.433594 22.0625-8.140625 33.738281-11.246094.578125 18.964844 1.890625 34.894531 3.914062 47.433594 2.636719 16.359375 7.945313 38.105468 23.507813 38.105468 16.207031 0 21.480468-23.78125 24.265625-44.503906 2.296875-17.078125 3.128906-36.472656 3.390625-51.527344 19.179687-2.449218 37.617187-3.753906 53.695312-4.394531.164063 12.476563.769532 30.664063 2.671875 48.082031 3.949219 36.199219 11.675781 52.34375 25.039063 52.34375 13.367187 0 21.09375-16.144531 25.042968-52.347656 1.902344-17.417968 2.507813-35.59375 2.671876-48.070312 15.859374.640625 34.355468 1.9375 53.6875 4.40625.265624 15.070312 1.105468 34.46875 3.398437 51.507812 2.785156 20.722656 8.0625 44.503906 24.265625 44.503906 15.5625 0 20.871094-21.746093 23.507812-38.105468 2.023438-12.539063 3.335938-28.46875 3.914063-47.433594 3.035156.808594 6.054687 1.648438 9.039063 2.542969 63.253906 18.875 95.324218 51.046875 95.324218 95.621093v19.28125c-18.308594 5.636719-49.757812 8.488282-93.664062 8.488282-19.929688 0-43.234375-1.152344-67.902344-2.375-26.542969-1.316406-53.988281-2.675782-79.285156-2.675782-25.371094 0-52.855469 1.90625-79.433594 3.75-24.628906 1.707032-47.894531 3.320313-67.753906 3.320313-49.890625 0-78.09375-5.335937-93.664063-10.449219v-19.339844c0-29.601562 13.480469-52.988281 41.210938-71.492187 3.480469-2.324219 4.417969-7.027344 2.09375-10.503906-2.320313-3.480469-7.023438-4.417969-10.503907-2.097657-31.8125 21.234376-47.945312 49.527344-47.945312 84.09375v61.9375c0 47.980469 39.035156 87.015626 87.015625 87.015626h178.242187c4.183594 0 7.574219-3.390626 7.574219-7.574219 0-4.183594-3.390625-7.574219-7.574219-7.574219h-178.242187c-39.625 0-71.867187-32.238281-71.867187-71.867188v-26.742187c22.34375 6.46875 53.765624 9.742187 93.664062 9.742187 20.382812 0 43.902344-1.628906 68.800781-3.355468 26.324219-1.824219 53.539063-3.710938 78.386719-3.710938 24.921875 0 52.179688 1.347656 78.535156 2.652344 24.863282 1.234375 48.347656 2.394531 68.652344 2.394531 42.601562 0 73.433594-2.589843 93.667969-7.890625v26.910156c0 39.628907-32.242188 71.871094-71.871094 71.871094h-124.296875c-4.183594 0-7.574219 3.390625-7.574219 7.574219 0 4.179687 3.390625 7.574219 7.574219 7.574219h124.296875c47.980469 0 87.015625-39.035156 87.015625-87.019532v-61.9375c0-28.34375-10.9375-52.609374-32.503906-72.125zm-322.867188 9.511719c-3.40625 28.296875-8.632812 33.863281-9.75 34.746094-1.460937-1.050781-10.6875-10.21875-12.316406-73.941406 8.25-1.8125 16.570312-3.363281 24.835938-4.679688-.273438 13.050781-1 29.203125-2.769532 43.875zm109.746094-7.796875c-3.25 33.332032-8.84375 40.910156-10.375 42.394532-1.53125-1.480469-7.125-9.0625-10.375-42.390626-1.546875-15.839843-2.050781-31.964843-2.195312-43.085937 4.488281-.082031 8.703124-.117187 12.570312-.117187 3.789062 0 8.011719.035156 12.570312.117187-.144531 11.121094-.648437 27.242187-2.195312 43.082031zm98.746094 42.542969c-1.113282-.882813-6.34375-6.449219-9.753906-34.746094-1.761719-14.636719-2.492188-30.789062-2.773438-43.851562 8.261719 1.308593 16.585938 2.847656 24.84375 4.660156-1.628906 63.71875-10.855469 72.886719-12.316406 73.9375zm0 0"/></svg>