<svg height="512pt" viewBox="-38 0 512 512" width="512pt" xmlns="http://www.w3.org/2000/svg"><path d="m220.171875 193.03125-24.488281-28.050781c-9.835938-11.265625-15.257813-25.714844-15.257813-40.671875v-60.136719h-117.925781v60.136719c0 14.957031-5.421875 29.40625-15.257812 40.671875l-24.488282 28.050781c-9.835937 11.265625-15.253906 25.714844-15.253906 40.671875v237.511719c0 18.382812 14.902344 33.289062 33.285156 33.289062h161.355469c18.382813 0 33.289063-14.90625 33.289063-33.289062v-237.515625c-.003907-14.953125-5.421876-29.402344-15.257813-40.667969zm0 0" fill="#b1e8ca"/><path d="m235.425781 233.703125v237.507813c0 18.390624-14.898437 33.289062-33.289062 33.289062h-161.355469c-18.382812 0-33.28125-14.898438-33.28125-33.289062v-237.507813c0-5.058594.621094-10.058594 1.820312-14.898437 2.417969-1.269532 5.378907-1.550782 8.210938-.371094 16.6875 6.941406 20.667969 25.871094 44.71875 25.871094 29.4375 0 29.4375-28.378907 58.886719-28.378907 29.441406 0 29.441406 28.378907 58.890625 28.378907 24.101562 0 28.480468-19 45.398437-25.910157 2.820313-1.152343 5.761719-.871093 8.171875.390625 1.210938 4.847656 1.828125 9.847656 1.828125 14.917969zm0 0" fill="#fef1da"/><path d="m235.429688 233.707031v237.507813c0 18.378906-14.898438 33.289062-33.289063 33.289062h-161.355469c-13.042968 0-24.332031-7.507812-29.792968-18.4375 2.730468.730469 5.589843 1.109375 8.550781 1.109375h161.359375c18.390625 0 33.289062-14.898437 33.289062-33.289062v-228.179688c3.269532-2.886719 6.828125-5.507812 11.238282-7.308593 2.820312-1.160157 5.761718-.871094 8.171874.390624 1.210938 4.851563 1.828126 9.851563 1.828126 14.917969zm0 0" fill="#fde6bf"/><path d="m184.664062 64.171875h-126.332031c-7.664062 0-13.875-6.210937-13.875-13.875v-28.917969c0-7.664062 6.210938-13.878906 13.875-13.878906h126.332031c7.664063 0 13.875 6.214844 13.875 13.878906v28.917969c0 7.664063-6.210937 13.875-13.875 13.875zm0 0" fill="#6fd6a2"/><path d="m198.542969 21.382812v28.910157c0 7.667969-6.210938 13.878906-13.882813 13.878906h-126.328125c-7.667969 0-13.878906-6.210937-13.878906-13.878906v-4.121094h121.019531c7.660156 0 13.878906-6.210937 13.878906-13.878906v-24.792969h5.308594c7.671875 0 13.882813 6.210938 13.882813 13.882812zm0 0" fill="#43cd8e"/><path d="m219.613281 271.503906c-8.28125 0-14.78125 7.09375-14.0625 15.34375l15.863281 181.496094c1.90625 20.148438 18.824219 35.542969 39.066407 35.542969h113.019531c20.242188 0 37.160156-15.394531 39.066406-35.542969l15.863282-181.496094c.722656-8.25-5.78125-15.34375-14.0625-15.34375zm0 0" fill="#b1e8ca"/><path d="m428.429688 286.847656-15.859376 181.496094c-1.910156 20.152344-18.832031 35.542969-39.070312 35.542969h-113.019531c-15.488281 0-29.03125-9.011719-35.390625-22.269531 2.019531.316406 4.082031.488281 6.179687.488281h113.019531c20.238282 0 37.160157-15.398438 39.058594-35.550781l15.3125-175.046876h15.707032c8.28125 0 14.78125 7.089844 14.0625 15.339844zm0 0" fill="#92dfb7"/><path d="m209.195312 328.539062h215.589844l-11.011718 125.976563h-193.566407zm0 0" fill="#fdd79b"/><path d="m424.789062 328.539062-11.019531 125.976563h-193.558593l-1.980469-22.667969h150.582031c8.839844 0 16.214844-6.761718 16.984375-15.570312l7.671875-87.738282zm0 0" fill="#ffc265"/><path d="m430.300781 271.015625c-4.082031-4.457031-9.890625-7.011719-15.933593-7.011719h-171.441407v-30.304687c0-5.5625-.679687-11.058594-1.976562-16.386719-.050781-.261719-.117188-.519531-.195313-.773438-2.667968-10.441406-7.738281-20.203124-14.933594-28.441406l-24.484374-28.050781c-8.648438-9.902344-13.40625-22.59375-13.40625-35.738281v-52.910156c10.238281-1.582032 18.113281-10.425782 18.113281-21.101563v-28.921875c-.003907-11.785156-9.59375-21.375-21.378907-21.375h-126.332031c-11.785156 0-21.375 9.589844-21.375 21.375v28.921875c0 10.648437 7.835938 19.480469 18.042969 21.089844v22.363281c0 4.144531 3.355469 7.5 7.5 7.5 4.140625 0 7.496094-3.355469 7.496094-7.5v-22.078125h102.929687v52.636719c0 16.773437 6.078125 32.96875 17.109375 45.605468l24.488282 28.046876c3.515624 4.03125 6.378906 8.527343 8.550781 13.324218-.160157.058594-.324219.101563-.480469.164063-7.914062 3.234375-13.441406 8.5625-18.316406 13.261719-7.007813 6.757812-12.546875 12.09375-24.25 12.09375-11.699219 0-17.234375-5.335938-24.246094-12.089844-7.527344-7.257813-16.898438-16.289063-34.640625-16.289063-17.753906 0-27.125 9.03125-34.65625 16.289063-7.007813 6.753906-12.542969 12.089844-24.234375 12.089844-11.648438 0-17.039062-5.3125-23.863281-12.035157-4.761719-4.691406-10.160157-10.011719-17.96875-13.257812-.1875-.078125-.386719-.132813-.578125-.203125 2.175781-4.804688 5.042968-9.3125 8.566406-13.347656l24.488281-28.050782c9.804688-11.234375 15.816407-25.609375 16.914063-40.480468.308594-4.132813-2.792969-7.726563-6.925782-8.035157-4.128906-.308593-7.726562 2.796875-8.03125 6.925781-.863281 11.65625-5.570312 22.921876-13.257812 31.726563l-24.488281 28.050781c-7.191407 8.238282-12.261719 17.992188-14.929688 28.433594-.085937.277344-.15625.558594-.214843.847656-1.285157 5.308594-1.960938 10.78125-1.960938 16.320313v237.515625c0 22.488281 18.296875 40.785156 40.785156 40.785156h161.355469c10.984375 0 20.960937-4.371094 28.296875-11.460938 8.132812 6.804688 18.613281 10.847657 30.042969 10.847657h113.019531c24.246094 0 44.25-18.199219 46.535156-42.390625l1.207032-13.828125 8.066406-92.292969 6.589844-75.371094c.527343-6.023437-1.511719-12.03125-5.597657-16.488281zm-371.96875-214.34375c-3.515625 0-6.375-2.859375-6.375-6.375v-28.921875c0-3.515625 2.859375-6.375 6.375-6.375h126.332031c3.515626 0 6.375 2.859375 6.375 6.375v28.921875c0 3.515625-2.859374 6.375-6.375 6.375zm360.910157 224.476563c1.269531 1.382812 1.878906 3.175781 1.714843 5.046874l-3.046875 34.84375h-50.921875c-4.140625 0-7.5 3.359376-7.5 7.5 0 4.144532 3.359375 7.5 7.5 7.5h49.609375l-9.699218 110.976563h-179.820313l-9.699219-110.976563h115.109375c4.144531 0 7.5-3.355468 7.5-7.5 0-4.140624-3.355469-7.5-7.5-7.5h-116.417969l-3.046874-34.84375c-.164063-1.871093.445312-3.664062 1.710937-5.046874 1.269531-1.382813 3-2.144532 4.878906-2.144532h194.753907c1.875 0 3.609374.761719 4.875 2.144532zm-217.101563 215.851562h-161.355469c-14.21875 0-25.785156-11.566406-25.785156-25.785156v-237.511719c0-2.664063.203125-5.300781.585938-7.90625 4.648437 2.175781 8.207031 5.652344 12.273437 9.65625 7.390625 7.285156 16.59375 16.351563 34.390625 16.351563 17.746094 0 27.113281-9.03125 34.644531-16.289063 7.007813-6.753906 12.546875-12.089844 24.246094-12.089844 11.691406 0 17.226563 5.332031 24.230469 12.085938 7.53125 7.257812 16.90625 16.292969 34.65625 16.292969 17.757812 0 27.128906-9.035157 34.660156-16.296876 4.199219-4.046874 7.875-7.558593 12.648438-9.746093.386718 2.617187.59375 5.265625.59375 7.9375v30.304687h-8.316407c-6.042969 0-11.851562 2.554688-15.933593 7.011719-4.085938 4.457031-6.125 10.464844-5.597657 16.488281l3.640625 41.683594v.007812l11.011719 125.972657s.003906.003906.003906.007812l1.210938 13.871094c.699219 7.375 3.054687 14.1875 6.675781 20.105469-4.6875 4.832031-11.234375 7.847656-18.484375 7.847656zm171.359375-.613281h-113.019531c-16.464844 0-30.046875-12.359375-31.59375-28.695313l-.496094-5.675781h177.199219l-.492188 5.621094c-1.550781 16.390625-15.132812 28.75-31.597656 28.75zm0 0"/></svg>